# xmcd
#
# Track frame offsets: 
#        150
#        16214
#        36315
#        49930
#        69202
#        82060
#        102345
#        116523
#        137539
#        149278
#
# Disc length: 2259 seconds
#
# Revision: 1
# Processed by: cddbd v1.5.2PL0 Copyright (c) Steve Scherf et al.
# Submitted via: ExactAudioCopyFreeDBPlugin 1.0
#
DISCID=8508d10a
DTITLE=Johnny Winter - Saints And Sinners
DYEAR=1974
DGENRE=Rock
TTITLE0=Stone County
TTITLE1=Blinded By Love
TTITLE2=Thirty Days
TTITLE3=Stray Cat Blues
TTITLE4=Bad Luck Situation
TTITLE5=Rollin' Cross The Country
TTITLE6=Riot In Cell Block #9
TTITLE7=Hurtin' So Bad
TTITLE8=Bony Maronie
TTITLE9=Feedback On Highway 101
EXTD=
EXTT0=
EXTT1=
EXTT2=
EXTT3=
EXTT4=
EXTT5=
EXTT6=
EXTT7=
EXTT8=
EXTT9=
PLAYORDER=
